<svg width="60" height="60" viewBox="0 0 60 60" fill="none" xmlns="http://www.w3.org/2000/svg">
<circle cx="30" cy="30" r="29.7" stroke="white" stroke-width="0.6"/>
<path d="M30 15C33.315 15 36 17.9833 36 21.6667C36 25.35 33.315 28.3333 30 28.3333C26.685 28.3333 24 25.35 24 21.6667C24 17.9833 26.685 15 30 15ZM36 32.5667C36 34.3333 35.58 38.45 32.715 43.05L31.5 35L32.91 31.8667C31.98 31.75 31.005 31.6667 30 31.6667C28.995 31.6667 28.02 31.75 27.09 31.8667L28.5 35L27.285 43.05C24.42 38.45 24 34.3333 24 32.5667C20.415 33.7333 18 35.8333 18 38.3333V45H42V38.3333C42 35.8333 39.6 33.7333 36 32.5667Z" fill="white"/>
</svg>
