<svg width="40" height="40" viewBox="0 0 40 40" fill="none" xmlns="http://www.w3.org/2000/svg">
<path d="M11.6667 28.355L19.0217 28.33L35.075 12.43C35.705 11.8 36.0517 10.9633 36.0517 10.0733C36.0517 9.18331 35.705 8.34665 35.075 7.71665L32.4317 5.07331C31.1717 3.81331 28.9734 3.81998 27.7234 5.06831L11.6667 20.9716V28.355ZM30.075 7.42998L32.7234 10.0683L30.0617 12.705L27.4184 10.0633L30.075 7.42998ZM15 22.3616L25.05 12.4066L27.6934 15.05L17.645 25.0016L15 25.01V22.3616Z" fill="white"/>
<path d="M8.33333 35H31.6667C33.505 35 35 33.505 35 31.6667V17.22L31.6667 20.5533V31.6667H13.5967C13.5533 31.6667 13.5083 31.6833 13.465 31.6833C13.41 31.6833 13.355 31.6683 13.2983 31.6667H8.33333V8.33333H19.745L23.0783 5H8.33333C6.495 5 5 6.495 5 8.33333V31.6667C5 33.505 6.495 35 8.33333 35Z" fill="white"/>
</svg>
