<svg width="40" height="40" viewBox="0 0 40 40" fill="none" xmlns="http://www.w3.org/2000/svg">
<path d="M21.25 18.3333C21.25 18.0018 21.1183 17.6839 20.8839 17.4494C20.6495 17.215 20.3315 17.0833 20 17.0833C19.6685 17.0833 19.3505 17.215 19.1161 17.4494C18.8817 17.6839 18.75 18.0018 18.75 18.3333V21.6666C18.75 21.9982 18.8817 22.3161 19.1161 22.5505C19.3505 22.7849 19.6685 22.9166 20 22.9166C20.3315 22.9166 20.6495 22.7849 20.8839 22.5505C21.1183 22.3161 21.25 21.9982 21.25 21.6666V18.3333Z" fill="white"/>
<path fill-rule="evenodd" clip-rule="evenodd" d="M22.875 3.37835L26.9317 4.05501C28.8567 4.37501 30.4183 4.63501 31.6383 4.99835C32.91 5.37835 33.96 5.90835 34.7683 6.86168C35.5767 7.81501 35.9283 8.94001 36.0917 10.2567C36.25 11.52 36.25 13.1033 36.25 15.0567V24.945C36.25 26.8967 36.25 28.4783 36.0917 29.7433C35.9283 31.06 35.5767 32.1833 34.7683 33.1383C33.96 34.0917 32.91 34.6217 31.6383 35C30.4183 35.365 28.8567 35.625 26.9317 35.945L22.875 36.6217C21.1533 36.9083 19.7283 37.1467 18.5917 37.1734C17.3983 37.2017 16.2933 37.01 15.37 36.2283C14.5917 35.57 14.2067 34.7117 14.0033 33.75H13.2433C11.3567 33.75 9.81333 33.75 8.59333 33.5867C7.32167 33.415 6.21833 33.045 5.33667 32.1633C4.455 31.2817 4.085 30.18 3.91333 28.905C3.75 27.6883 3.75 26.145 3.75 24.255V15.745C3.75 13.8567 3.75 12.315 3.91333 11.095C4.085 9.82335 4.455 8.72001 5.33667 7.83835C6.21833 6.95668 7.32 6.58668 8.595 6.41501C9.81167 6.25168 11.355 6.25168 13.245 6.25168H14.005C14.205 5.29001 14.5917 4.43168 15.3717 3.77335C16.2933 2.99001 17.3983 2.80001 18.5917 2.82835C19.7283 2.85501 21.1533 3.09335 22.875 3.38001M13.75 28.8917C13.75 29.7517 13.75 30.5383 13.7683 31.25H13.3333C11.3333 31.25 9.96 31.2467 8.92833 31.1083C7.93167 30.975 7.445 30.735 7.105 30.395C6.765 30.055 6.525 29.5683 6.39167 28.5717C6.25333 27.54 6.25 26.1667 6.25 24.1667V15.8333C6.25 13.8333 6.25333 12.46 6.39167 11.4283C6.525 10.4317 6.765 9.94501 7.105 9.60501C7.445 9.26501 7.93167 9.02501 8.92833 8.89168C9.96 8.75335 11.3333 8.75001 13.3333 8.75001H13.7683C13.75 9.46168 13.75 10.2483 13.75 11.1083V28.8917ZM18.5317 5.32501C17.6267 5.30335 17.2433 5.46168 16.9867 5.67835C16.73 5.89501 16.5117 6.24835 16.385 7.14501C16.2517 8.07335 16.25 9.33835 16.25 11.2033V28.7967C16.25 30.6617 16.2533 31.9267 16.385 32.8567C16.5117 33.7517 16.73 34.105 16.9867 34.3217C17.2433 34.5383 17.6267 34.695 18.5317 34.6733C19.47 34.6517 20.7183 34.4467 22.5567 34.14L26.44 33.4933C28.465 33.155 29.8717 32.9183 30.925 32.605C31.945 32.3017 32.485 31.965 32.8617 31.5217C33.2383 31.0767 33.4783 30.49 33.6117 29.4333C33.7483 28.3433 33.75 26.9167 33.75 24.8617V15.1383C33.75 13.0833 33.7483 11.6567 33.6117 10.5667C33.4783 9.51001 33.2367 8.92168 32.8617 8.47835C32.485 8.03501 31.945 7.69835 30.925 7.39501C29.8717 7.08168 28.465 6.84501 26.4383 6.50668L22.5567 5.86001C20.7183 5.55335 19.47 5.34835 18.5317 5.32668" fill="white"/>
</svg>
